<?xml version="1.0" encoding="utf-8"?>
<!-- Generator: Adobe Illustrator 19.1.0, SVG Export Plug-In . SVG Version: 6.00 Build 0)  -->
<svg version="1.0" id="Layer_1" xmlns="http://www.w3.org/2000/svg" xmlns:xlink="http://www.w3.org/1999/xlink" x="0px" y="0px"
	 viewBox="0 0 307 71.3" style="enable-background:new 0 0 307 71.3;" xml:space="preserve">
<style type="text/css">
	.st0{fill:#FDCB00;}
</style>
<g>
	<path class="st0" d="M0.2,71.5c0-23.8,0-47.5,0-71.3c102.3,0,204.6,0,307,0c0,23.8,0,47.5,0,71.3C204.9,71.5,102.6,71.5,0.2,71.5z
		 M147,39.9c2.7,2.8,5.1,5.3,7.4,7.8c7.9,0,15.7,0,23.1,0c-1.7-1.8-3.4-3.6-5.1-5.5c-1.8-1.9-3.6-3.7-5.6-5.7c1,0,1.9,0,2.8,0
		c3.2-0.2,5.7-2.8,5.8-5.9c0.1-3.7-2.8-6.6-6.7-6.6c-13.8,0-27.7,0-41.5,0c-0.3,0-0.6,0-1,0c0,8,0,15.8,0,23.7c6.6,0,13.2,0,19.9,0
		c0-5.3,0-10.6,0-15.9c1.7,0,3.3-0.1,4.8,0c2.3,0.2,4,2.1,3.9,4.2c-0.1,2.2-2,3.8-4.4,3.9C149.5,39.9,148.4,39.9,147,39.9z
		 M271.9,35.7c3.8-4,7.5-7.8,11.1-11.6c-7,0-14.1,0-21.4,0c-3.4,3.2-6.8,6.5-10.4,10c0-3.5,0-6.7,0-10c-6.7,0-13.3,0-19.8,0
		c0,7.9,0,15.8,0,23.6c6.6,0,13.2,0,19.9,0c0-3.2,0-6.3,0-9.5c3.3,3.2,6.5,6.3,9.7,9.5c7.4,0,14.9,0,22.5,0
		C279.6,43.6,275.7,39.6,271.9,35.7z M74.6,24.1c0,4.3,0,8.5,0,12.7c0,3,1.2,5.4,3.5,7.3c3.1,2.5,6.7,3.6,10.5,4.2
		c6.4,1.1,12.8,1,19.2,0.2c3.7-0.5,7.3-1.4,10.5-3.5c3.1-2,4.8-4.6,4.7-8.5c-0.1-3.8,0-7.6,0-11.4c0-0.3,0-0.7-0.1-1
		c-6.4,0-12.8,0-19.2,0c0,3.1,0,6.2,0,9.3c0,2.1-0.9,3.6-2.6,4.3c-4,1.5-7.1-0.6-7.1-4.9c0-2.9,0-5.7,0-8.7
		C87.4,24.1,81.1,24.1,74.6,24.1z M228.5,34c-0.5-1.9-1.4-3.4-2.7-4.6c-2.3-2.3-5.1-3.8-8.1-4.7c-8.6-2.5-17.3-2.5-26.1-0.8
		c-4,0.8-7.7,2.3-10.8,5.1c-4.5,4.1-4.5,10.2,0.1,14.2c2.5,2.2,5.5,3.5,8.7,4.3c8.2,2,16.5,1.9,24.8,0.6c3.7-0.6,7.1-1.9,10.1-4.2
		c1.9-1.4,3.3-3.2,3.9-5.6c-6.9,0-13.8,0-20.6,0c-2.4,3-5.6,3.6-8.1,1.4c-2-1.8-2.1-5.1-0.1-6.9c2-1.8,5.7-2.4,8.3,1.3
		C214.7,34,221.5,34,228.5,34z M71.3,24.1c-15.8,0-31.5,0-47.2,0c0,3.9,0,7.8,0,11.7c4.6,0,9.1,0,13.8,0c0,4,0,8,0,11.9
		c6.6,0,13,0,19.6,0c0-4,0-7.9,0-11.9c4.7,0,9.2,0,13.8,0C71.3,31.8,71.3,28,71.3,24.1z"/>
	<path d="M147,39.9c1.4,0,2.5,0,3.5,0c2.4,0,4.3-1.7,4.4-3.9c0.1-2.1-1.6-4-3.9-4.2c-1.5-0.1-3.1,0-4.8,0c0,5.3,0,10.6,0,15.9
		c-6.7,0-13.3,0-19.9,0c0-7.9,0-15.8,0-23.7c0.4,0,0.7,0,1,0c13.8,0,27.7,0,41.5,0c3.9,0,6.8,2.9,6.7,6.6c-0.1,3.1-2.6,5.7-5.8,5.9
		c-0.9,0.1-1.8,0-2.8,0c1.9,2,3.8,3.8,5.6,5.7c1.8,1.8,3.5,3.7,5.1,5.5c-7.5,0-15.2,0-23.1,0C152.1,45.2,149.7,42.7,147,39.9z"/>
	<path d="M271.9,35.7c3.8,3.9,7.6,7.9,11.6,12c-7.7,0-15.2,0-22.5,0c-3.2-3.1-6.4-6.3-9.7-9.5c0,3.1,0,6.2,0,9.5
		c-6.7,0-13.3,0-19.9,0c0-7.8,0-15.7,0-23.6c6.6,0,13.2,0,19.8,0c0,3.3,0,6.5,0,10c3.6-3.5,7-6.8,10.4-10c7.2,0,14.4,0,21.4,0
		C279.4,27.9,275.7,31.7,271.9,35.7z"/>
	<path d="M74.6,24.1c6.5,0,12.9,0,19.3,0c0,2.9,0,5.8,0,8.7c0,4.3,3.1,6.4,7.1,4.9c1.8-0.7,2.7-2.2,2.6-4.3c0-3.1,0-6.1,0-9.3
		c6.4,0,12.8,0,19.2,0c0,0.3,0.1,0.7,0.1,1c0,3.8-0.1,7.6,0,11.4c0.1,3.8-1.6,6.5-4.7,8.5c-3.2,2.1-6.8,3-10.5,3.5
		c-6.4,0.8-12.8,0.8-19.2-0.2c-3.8-0.6-7.5-1.8-10.5-4.2c-2.3-1.9-3.5-4.2-3.5-7.3C74.6,32.5,74.6,28.3,74.6,24.1z"/>
	<path d="M228.5,34c-7,0-13.8,0-20.6,0c-2.6-3.7-6.3-3.1-8.3-1.3c-2,1.9-1.9,5.1,0.1,6.9c2.5,2.2,5.6,1.7,8.1-1.4
		c6.8,0,13.7,0,20.6,0c-0.6,2.4-2,4.2-3.9,5.6c-3,2.3-6.4,3.6-10.1,4.2c-8.3,1.4-16.6,1.4-24.8-0.6c-3.2-0.8-6.2-2.1-8.7-4.3
		c-4.6-4-4.6-10.1-0.1-14.2c3.1-2.8,6.8-4.3,10.8-5.1c8.7-1.7,17.5-1.7,26.1,0.8c3.1,0.9,5.9,2.3,8.1,4.7
		C227.1,30.6,228,32.1,228.5,34z"/>
	<path d="M71.3,24.1c0,3.9,0,7.7,0,11.7c-4.6,0-9.1,0-13.8,0c0,4,0,8,0,11.9c-6.5,0-13,0-19.6,0c0-3.9,0-7.8,0-11.9
		c-4.7,0-9.2,0-13.8,0c0-4,0-7.8,0-11.7C39.8,24.1,55.5,24.1,71.3,24.1z"/>
</g>
</svg>
