<?xml version="1.0" encoding="UTF-8" standalone="no"?>
<!-- Created with Inkscape (http://www.inkscape.org/) -->
<svg
   xmlns:svg="http://www.w3.org/2000/svg"
   xmlns="http://www.w3.org/2000/svg"
   version="1.0"
   width="744.09448"
   height="379.13385"
   id="svg3383">
  <defs
     id="defs3385" />
  <g
     transform="translate(-52.618395,-340.54596)"
     id="layer1">
    <g
       id="g3420">
      <path
         d="M 422.59434,358.19713 L 778.99632,533.32691 L 422.59434,702.02863 L 70.334895,533.32691 L 422.59434,358.19713"
         style="fill:#ec1b24;fill-rule:evenodd;stroke:none;stroke-width:0.036;stroke-linecap:butt;stroke-linejoin:miter;stroke-miterlimit:3.86400008;stroke-dasharray:none"
         id="path166" />
      <path
         d="M 228.75164,529.04152 L 253.74979,485.3305 L 276.74808,485.3305 L 249.60723,527.04169 L 276.74808,572.8954 L 251.60709,572.8954 L 228.75164,529.04152"
         style="fill:#ffffff;fill-rule:evenodd;stroke:none;stroke-width:0.036;stroke-linecap:butt;stroke-linejoin:miter;stroke-miterlimit:3.86400008;stroke-dasharray:none"
         id="path170" />
      <path
         d="M 205.75338,572.8954 L 228.75164,572.8954 L 228.75164,485.3305 L 205.75338,485.3305 L 205.75338,572.8954 z "
         style="fill:#ffffff;fill-rule:nonzero;stroke:none;stroke-width:0.036;stroke-linecap:butt;stroke-linejoin:miter;stroke-miterlimit:3.86400008;stroke-dasharray:none"
         id="path174" />
      <path
         d="M 357.88486,572.8954 L 339.17197,572.8954 L 312.03115,524.89899 L 312.03115,572.8954 L 291.31842,572.8954 L 291.31842,485.3305 L 312.03115,485.3305 L 335.02944,527.04169 L 337.17213,485.3305 L 357.88486,485.3305 L 357.88486,572.8954"
         style="fill:#ffffff;fill-rule:evenodd;stroke:none;stroke-width:0.036;stroke-linecap:butt;stroke-linejoin:miter;stroke-miterlimit:3.86400008;stroke-dasharray:none"
         id="path178" />
      <path
         d="M 383.02585,572.8954 L 408.02397,572.8954 L 408.02397,485.3305 L 383.02585,485.3305 L 383.02585,572.8954 z "
         style="fill:#ffffff;fill-rule:nonzero;stroke:none;stroke-width:0.036;stroke-linecap:butt;stroke-linejoin:miter;stroke-miterlimit:3.86400008;stroke-dasharray:none"
         id="path182" />
      <path
         d="M 493.44618,514.47118 C 493.44618,522.89913 491.30348,529.04152 487.16093,533.32691 C 483.0184,539.61216 474.73328,545.75455 462.1628,545.75455 L 449.59233,545.75455 L 449.59233,572.8954 L 428.87957,572.8954 L 428.87957,485.3305 L 458.02025,485.3305 C 468.44806,485.3305 483.0184,489.47306 487.16093,495.75831 C 491.30348,499.90084 493.44618,506.18609 493.44618,514.47118 z M 474.73328,514.47118 C 474.73328,508.32879 466.30536,502.04353 458.02025,502.04353 L 449.59233,502.04353 L 449.59233,529.04152 L 458.02025,529.04152 C 466.30536,529.04152 474.73328,520.75643 474.73328,514.47118"
         style="fill:#ffffff;fill-rule:evenodd;stroke:none;stroke-width:0.036;stroke-linecap:butt;stroke-linejoin:miter;stroke-miterlimit:3.86400008;stroke-dasharray:none"
         id="path186" />
      <path
         d="M 558.01279,572.8954 L 503.87399,572.8954 L 503.87399,485.3305 L 558.01279,485.3305 L 558.01279,502.04353 L 526.72942,502.04353 L 526.72942,518.75657 L 553.87024,518.75657 L 553.87024,535.32677 L 526.72942,535.32677 L 526.72942,554.1825 L 558.01279,554.1825 L 558.01279,572.8954"
         style="fill:#ffffff;fill-rule:evenodd;stroke:none;stroke-width:0.036;stroke-linecap:butt;stroke-linejoin:miter;stroke-miterlimit:3.86400008;stroke-dasharray:none"
         id="path190" />
      <path
         d="M 651.86295,572.8954 L 628.86466,572.8954 L 612.29446,541.61203 L 593.43873,572.8954 L 570.5833,572.8954 L 595.58142,527.04169 L 572.58313,485.3305 L 597.58129,485.3305 L 612.29446,512.47135 L 624.7221,485.3305 L 647.72039,485.3305 L 624.7221,527.04169 L 651.86295,572.8954"
         style="fill:#ffffff;fill-rule:evenodd;stroke:none;stroke-width:0.036;stroke-linecap:butt;stroke-linejoin:miter;stroke-miterlimit:3.86400008;stroke-dasharray:none"
         id="path194" />
      <path
         d="M 645.5777,426.62061 C 645.5777,436.47699 653.57708,444.61924 663.57636,444.61924 C 673.57561,444.61924 681.575,436.47699 681.575,426.62061 C 681.575,416.76419 673.57561,408.62194 663.57636,408.62194 C 653.57708,408.62194 645.5777,416.76419 645.5777,426.62061 z M 649.00599,426.62061 C 649.00599,418.19266 655.57695,411.33603 663.57636,411.33603 C 671.57575,411.33603 678.1467,418.19266 678.1467,426.62061 C 678.1467,435.04852 671.71858,441.90518 663.57636,441.90518 C 655.57695,441.90518 649.00599,435.04852 649.00599,426.62061 z M 657.00541,435.47709 L 660.29087,435.47709 L 660.29087,428.04907 L 663.00497,428.04907 C 666.86183,428.04907 666.86183,429.76323 667.00466,431.33453 C 667.14752,434.33429 667.00466,434.76286 667.71889,435.47709 L 671.00435,435.47709 C 670.43299,434.47716 670.57582,433.90576 670.43299,431.1917 C 670.29012,429.33467 670.14729,427.33484 667.71889,426.9063 L 667.71889,426.76344 C 670.43299,425.76351 670.86152,423.90651 670.86152,422.62088 C 670.86152,418.04982 666.86183,417.47842 664.86196,417.47842 L 657.00541,417.47842 L 657.00541,435.47709 z M 660.29087,419.90682 L 663.7192,419.90682 C 666.00473,419.90682 667.43319,420.47819 667.43319,422.62088 C 667.43319,423.90651 666.86183,425.47784 664.14773,425.47784 L 660.29087,425.47784 L 660.29087,419.90682"
         style="fill:#231f20;fill-rule:evenodd;stroke:none;stroke-width:0.036;stroke-linecap:butt;stroke-linejoin:miter;stroke-miterlimit:3.86400008;stroke-dasharray:none"
         id="path198" />
    </g>
  </g>
</svg>
