<?xml version="1.0" encoding="UTF-8" standalone="no"?>
<svg width="19px" height="17px" viewBox="0 0 19 17" version="1.1" xmlns="http://www.w3.org/2000/svg" xmlns:xlink="http://www.w3.org/1999/xlink">
    <!-- Generator: Sketch 41.1 (35376) - http://www.bohemiancoding.com/sketch -->
    <title>send</title>
    <desc>Created with Sketch.</desc>
    <defs></defs>
    <g id="Page-1" stroke="none" stroke-width="1" fill="none" fill-rule="evenodd">
        <g id="[Калибр]-11.1-личный-кабинет-oline-чат" transform="translate(-1081.000000, -540.000000)" fill="#FFFFFF">
            <g id="Group-4" transform="translate(173.000000, 84.000000)">
                <g id="send" transform="translate(908.000000, 456.000000)">
                    <g id="Layer_1">
                        <g id="Group">
                            <path d="M17.7894482,6.93252766 L2.46174728,0.174846809 C1.13774065,-0.408904255 -0.290592564,0.760442553 0.0513913225,2.14731702 L0.845163016,5.36650213 C0.957760742,5.82304255 1.2599329,6.21874468 1.67426165,6.45211489 L4.75057268,8.18521064 C4.99771422,8.32446596 4.99826562,8.67517234 4.75057268,8.81475319 L1.67429841,10.5478489 C1.25996966,10.7812191 0.957797503,11.1769574 0.845199777,11.6334979 L0.0513913225,14.852683 C-0.289857352,16.2364468 1.13608643,17.4095915 2.46174728,16.8251894 L17.7894849,10.0675085 C19.1663533,9.46046383 19.1645153,7.53874043 17.7894482,6.93252766 Z M17.2263493,8.83099362 L1.89864837,15.5886745 C1.6186061,15.7122681 1.3173162,15.4657681 1.38969782,15.1721383 L2.18346952,11.9529532 C2.20725363,11.8565596 2.27107003,11.7730064 2.35848675,11.7237426 L5.43479778,9.99064681 C6.6058803,9.3309383 6.60698312,7.66971277 5.43479778,7.00938936 L2.35848675,5.27625745 C2.27103327,5.22699362 2.20721687,5.14344043 2.18346952,5.04704681 L1.38969782,1.8278617 C1.31819845,1.53792128 1.6149668,1.28621277 1.89864837,1.41139787 L17.226386,8.16904255 C17.5172359,8.29730213 17.5179711,8.70240851 17.2263493,8.83099362 Z" id="Shape"></path>
                            <path d="M16.6406201,10.2829581 L5.88902042,4.86049508 C5.54185329,4.70745891 5.93146897,6.17668096 5.77600838,6.51812777 C5.62047427,6.85957458 4.41818055,7.48908282 4.76520064,7.64204665 L17.1931973,11.5847485 C17.1931973,11.5847485 17.1823978,10.52179 16.6406201,10.2829581 Z" id="Shape" transform="translate(10.947910, 8.217054) rotate(-22.000000) translate(-10.947910, -8.217054) "></path>
                        </g>
                    </g>
                </g>
            </g>
        </g>
    </g>
</svg>